<?xml version="1.0" encoding="iso-8859-1"?>
<!-- Generator: Adobe Illustrator 19.0.0, SVG Export Plug-In . SVG Version: 6.00 Build 0)  -->
<svg version="1.1" id="Layer_1" xmlns="http://www.w3.org/2000/svg" xmlns:xlink="http://www.w3.org/1999/xlink" x="0px" y="0px"
	 viewBox="0 0 469.772 469.772" style="enable-background:new 0 0 469.772 469.772;" xml:space="preserve">
<g>
	<path d="M210.836,105.5H68.447c-6.541,75.557,13.173,133.278,26.612,162.706L67.314,425.558l-53.652-9.46l-5.21,29.544
		l136.849,24.13l5.21-29.544l-53.653-9.461l27.745-157.352C149.697,247.919,193.827,192.528,210.836,105.5z"/>
	<path d="M72.54,74.33c-0.069,0.391-0.132,0.779-0.199,1.17h143.327c2.423-18.347,3.822-36.092,4.218-52.823L91.28,0
		C83.68,22.527,77.248,47.625,72.54,74.33z"/>
	<path d="M397.232,74.33C392.524,47.625,386.092,22.527,378.492,0L249.886,22.677c0.396,16.731,1.796,34.476,4.218,52.823h143.327
		C397.364,75.109,397.301,74.721,397.232,74.33z"/>
	<path d="M456.111,416.098l-53.652,9.46l-27.745-157.352c13.439-29.428,33.153-87.149,26.612-162.706H258.936
		c17.009,87.028,61.139,142.419,86.233,167.916l27.745,157.352l-53.653,9.461l5.21,29.544l136.849-24.13L456.111,416.098z"/>
</g>
<g>
</g>
<g>
</g>
<g>
</g>
<g>
</g>
<g>
</g>
<g>
</g>
<g>
</g>
<g>
</g>
<g>
</g>
<g>
</g>
<g>
</g>
<g>
</g>
<g>
</g>
<g>
</g>
<g>
</g>
</svg>
